<?xml version="1.0" encoding="utf-8"?>
<svg xml:space="preserve" viewBox="0 0 100 100" y="0px" x="0px" xmlns:xlink="http://www.w3.org/1999/xlink" xmlns="http://www.w3.org/2000/svg" id="圖層_1" version="1.1" style="height: 100%; width: 100%; background: rgba(0, 0, 0, 0) none repeat scroll 0% 0%; shape-rendering: auto;" width="200px" height="200px"><g style="transform-origin: 50% 50% 0px; transform: rotate(0deg) scale(0.8);" class="ldl-scale"><g class="ldl-ani"><g class="ldl-layer"><g class="ldl-ani" style="transform-origin: 50px 50px 0px; transform: scale(1); animation: 1.42857s linear -0.892857s infinite normal forwards running beat-188eff42-e274-4686-a4da-67cdcbaf0f5a;"><polygon points="50,7.5 57.3,22.6 71.3,13.2 70,30 86.8,28.8 77.4,42.7 92.5,50 77.4,57.3 86.8,71.3 70,70 71.3,86.8 57.3,77.4 50,92.5 42.7,77.4 28.8,86.8 30,70 13.2,71.3 22.6,57.3 7.5,50 22.6,42.7 13.2,28.8 30,30 28.8,13.2 42.7,22.6" fill="#C33837" style="fill: rgb(195, 56, 55);"></polygon></g></g><g class="ldl-layer"><g class="ldl-ani"><g><g class="ldl-layer"><g class="ldl-ani" style="transform-origin: 50px 50px 0px; transform: scale(1); animation: 1.42857s linear -1.07143s infinite normal forwards running beat-188eff42-e274-4686-a4da-67cdcbaf0f5a;"><path d="M26.9,42.2h4.2l4.5,8.4l0-3.9v-4.5h3.9v15.6h-4.2l-4.5-8.5l0,4v4.5h-3.9V42.2z" fill="#F5E169" style="fill: rgb(245, 225, 105);"></path></g></g><g class="ldl-layer"><g class="ldl-ani" style="transform-origin: 50px 50px 0px; transform: scale(1); animation: 1.42857s linear -1.25s infinite normal forwards running beat-188eff42-e274-4686-a4da-67cdcbaf0f5a;"><path d="M43,42.2h10.1v3.5h-6v2.4h5.1v3.5h-5.1v2.8h6v3.5H43V42.2z" fill="#F5E169" style="fill: rgb(245, 225, 105);"></path></g></g><g class="ldl-layer"><g class="ldl-ani" style="transform-origin: 50px 50px 0px; transform: scale(1); animation: 1.42857s linear -1.42857s infinite normal forwards running beat-188eff42-e274-4686-a4da-67cdcbaf0f5a;"><path d="M54.9,42.2h3.5c0,0,1.4,10.2,1.5,11.8l2.4-11.8h4L68.2,54c0.2-1.6,1.4-11.8,1.4-11.8h3.6l-2.3,15.6h-5.2 c0,0-1.5-8.7-1.6-9.8H64c-0.2,1.2-1.5,9.8-1.5,9.8h-5.1L54.9,42.2z" fill="#F5E169" style="fill: rgb(245, 225, 105);"></path></g></g></g></g></g><metadata xmlns:d="https://loading.io/stock/">
<d:name>new</d:name>
<d:tags>new,hot,latest,fresh</d:tags>
<d:license>by</d:license>
<d:slug>y1te84</d:slug>
</metadata></g></g><style id="beat-188eff42-e274-4686-a4da-67cdcbaf0f5a" data-anikit="">@keyframes beat-188eff42-e274-4686-a4da-67cdcbaf0f5a
{
  0% {
    animation-timing-function: cubic-bezier(0.1028,0.2484,0.1372,0.849);
    transform: scale(1);
  }
  34% {
    animation-timing-function: cubic-bezier(0.7116,0.2095,0.8159,0.6876);
    transform: scale(1.2);
  }
  68% {
    animation-timing-function: cubic-bezier(0.1475,0.2888,0.294,0.883);
    transform: scale(1.0268);
  }
  84% {
    animation-timing-function: cubic-bezier(0.8176,0.2193,0.867,0.6889);
    transform: scale(1.0932);
  }
  100% {
    transform: scale(1);
  }
}</style><!-- [ldio] generated by https://loading.io/ --></svg>