<?xml version="1.0" encoding="UTF-8"?>
<svg width="16px" height="18px" viewBox="0 0 16 18" version="1.1" xmlns="http://www.w3.org/2000/svg" xmlns:xlink="http://www.w3.org/1999/xlink">
    <!-- Generator: sketchtool 60 (101010) - https://sketch.com -->
    <title>1C38BE3A-0D21-43CA-BB5F-0F8397FEE970</title>
    <desc>Created with sketchtool.</desc>
    <g id="Page-1" stroke="none" stroke-width="1" fill="none" fill-rule="evenodd">
        <g id="Casino_game" transform="translate(-1731.000000, -37.000000)" fill="#AAAFB5" fill-rule="nonzero">
            <g id="header" transform="translate(0.000000, 21.000000)">
                <g id="photo" transform="translate(1719.000000, 5.000000)">
                    <g id="user">
                        <g transform="translate(12.000000, 11.000000)">
                            <g id="Shape">
                                <path d="M8.11111111,0 C5.47664444,0 3.33333333,2.11717317 3.33333333,4.7195122 C3.33333333,7.32185122 5.47664444,9.43902439 8.11111111,9.43902439 C10.7455778,9.43902439 12.8888889,7.32185122 12.8888889,4.7195122 C12.8888889,2.11717317 10.7455778,0 8.11111111,0 Z M8.11111111,8.3902439 C6.06208148,8.3902439 4.39506173,6.74355366 4.39506173,4.7195122 C4.39506173,2.69547073 6.06208148,1.04878049 8.11111111,1.04878049 C10.1601407,1.04878049 11.8271605,2.69547073 11.8271605,4.7195122 C11.8271605,6.74355366 10.1601407,8.3902439 8.11111111,8.3902439 Z"></path>
                                <path d="M13.9721244,12.5853279 C12.6579911,11.2641627 10.9158756,10.5365854 9.06666667,10.5365854 L6.93333333,10.5365854 C5.08416,10.5365854 3.34200889,11.2641627 2.02787556,12.5853279 C0.720177778,13.9000154 0,15.6354001 0,17.4719282 C0,17.7635647 0.238791111,18 0.533333333,18 L15.4666667,18 C15.7612089,18 16,17.7635647 16,17.4719282 C16,15.6354001 15.2798222,13.9000154 13.9721244,12.5853279 Z M1.09013333,16.9438564 C1.35733333,13.948422 3.87594667,11.5927289 6.93333333,11.5927289 L9.06666667,11.5927289 C12.1240533,11.5927289 14.6426667,13.948422 14.9098667,16.9438564 L1.09013333,16.9438564 Z"></path>
                            </g>
                        </g>
                    </g>
                </g>
            </g>
        </g>
    </g>
</svg>