<?xml version="1.0" encoding="UTF-8"?>
<svg width="16px" height="16px" viewBox="0 0 16 16" version="1.1" xmlns="http://www.w3.org/2000/svg" xmlns:xlink="http://www.w3.org/1999/xlink">
    <!-- Generator: sketchtool 60 (101010) - https://sketch.com -->
    <title>B5457B64-58D8-4CF7-AF7A-6D7E396F96E2</title>
    <desc>Created with sketchtool.</desc>
    <g id="Page-1" stroke="none" stroke-width="1" fill="none" fill-rule="evenodd">
        <g id="login" transform="translate(-1120.000000, -336.000000)" fill="#AAAFB5" fill-rule="nonzero">
            <g id="popup" transform="translate(760.000000, 312.000000)">
                <g id="close" transform="translate(360.000000, 24.000000)">
                    <g id="Path">
                        <path d="M9.76221138,8 L15.7443902,2.01717185 C15.9089431,1.85247821 15.9997398,1.6327566 16,1.39846494 C16,1.16404319 15.9092033,0.944061402 15.7443902,0.779627943 L15.2201626,0.255496292 C15.0553496,0.0904123845 14.8356423,0 14.6011057,0 C14.3669593,0 14.147252,0.0904123845 13.982439,0.255496292 L8.00026016,6.23793417 L2.01782114,0.255496292 C1.85326829,0.0904123845 1.63343089,0 1.39902439,0 C1.16487805,0 0.94504065,0.0904123845 0.780487805,0.255496292 L0.256,0.779627943 C-0.0853333333,1.12098348 -0.0853333333,1.67620658 0.256,2.01717185 L6.23830894,8 L0.256,13.982568 C0.0913170732,14.1475218 0.000650406504,14.3672434 0.000650406504,14.6015351 C0.000650406504,14.8358267 0.0913170732,15.0555483 0.256,15.2203721 L0.780357724,15.7445037 C0.944910569,15.9094575 1.16487805,16 1.39889431,16 C1.63330081,16 1.85313821,15.9094575 2.01769106,15.7445037 L8.00013008,9.76193574 L13.9823089,15.7445037 C14.147122,15.9094575 14.3668293,16 14.6009756,16 L14.6012358,16 C14.8355122,16 15.0552195,15.9094575 15.2200325,15.7445037 L15.7442602,15.2203721 C15.908813,15.0556784 15.9996098,14.8358267 15.9996098,14.6015351 C15.9996098,14.3672434 15.908813,14.1475218 15.7442602,13.9826981 L9.76221138,8 Z"></path>
                    </g>
                </g>
            </g>
        </g>
    </g>
</svg>